# xmcd
#
# Track frame offsets: 
#        150
#        6456
#        19023
#        32874
#        47785
#        58979
#        80434
#        95294
#        109726
#        112472
#        130911
#        137120
#        152469
#        169071
#        173419
#        175097
#        187976
#        200759
#        218321
#        232017
#        246319
#        256846
#        267648
#        282033
#        293680
#        306322
#        321035
#        336779
#
# Disc length: 4774 seconds
#
# Revision: 1
# Processed by: cddbd v1.5.1PL0 Copyright (c) Steve Scherf et al.
# Submitted via: ExactAudioCopy v0.90b4
#
DISCID=9612a41c
DTITLE=Pocahontas County - Live
DYEAR=2003
DGENRE=Bluegrass
TTITLE0=Yew Pine Mountain (Live)
TTITLE1=Those Memories (Live)
TTITLE2=Pretty Little Pink (Live)
TTITLE3=Making Plans
TTITLE4=Rock Bottom (Live)
TTITLE5=Who Will Watch The Home Place (Live)
TTITLE6=The First Step To Heaven (Live)
TTITLE7=Jesus And Bartenders (Live)
TTITLE8=Daniel Prayed (Rehearsal)
TTITLE9=Weary Blues (Rehearsal)
TTITLE10=The Moonshiner (Live)
TTITLE11=A Beautiful Life (Live)
TTITLE12=The Darkest Hour (Live)
TTITLE13=Spirit In The Sky (Rehearsal)
TTITLE14=Ack Ack Ack (Live Edit)
TTITLE15=Fox On The Run
TTITLE16=North Country Wind (Live)
TTITLE17=Everybody Stumbles (Live)
TTITLE18=Are You Washed In The Blood (Live)
TTITLE19=Liza Jane (Live)
TTITLE20=Rise And Follow Me (Live)
TTITLE21=Dooley(Live)
TTITLE22=Waiting For Someday To Come (Live)
TTITLE23=Uncle Pen (Live)
TTITLE24=How Mountain Girls Can Love (Live)
TTITLE25=Where's Your Road Leading You These Days (Live)
TTITLE26=100 Miles (Live)
TTITLE27=On My Father's Side (Live)
EXTD=
EXTT0=
EXTT1=
EXTT2=
EXTT3=
EXTT4=
EXTT5=
EXTT6=
EXTT7=
EXTT8=
EXTT9=
EXTT10=
EXTT11=
EXTT12=
EXTT13=
EXTT14=
EXTT15=
EXTT16=
EXTT17=
EXTT18=
EXTT19=
EXTT20=
EXTT21=
EXTT22=
EXTT23=
EXTT24=
EXTT25=
EXTT26=
EXTT27=
PLAYORDER=
